<?xml version="1.0" encoding="UTF-8"?>
<svg id="Ebene_1" xmlns="http://www.w3.org/2000/svg" version="1.1" viewBox="0 0 310 310">
  <!-- Generator: Adobe Illustrator 29.1.0, SVG Export Plug-In . SVG Version: 2.1.0 Build 142)  -->
  <defs>
    <style>
      .st0 {
        fill: #271a10;
      }

      .st1 {
        fill: #966e3c;
      }
    </style>
  </defs>
  <rect class="st0" width="310" height="310"/>
  <g>
    <path class="st1" d="M237.2,223.8h-4.6v22.3c0,5.1-2.1,10.1-8.8,10.1s-8.9-5-8.9-10.1v-22.3h-4.6v22.9c0,8.2,5,14,13.5,14s13.4-5.8,13.4-14v-22.9ZM170.9,229.3l7.4,17.3h-14.8l7.4-17.3ZM157.8,259.8l3.9-9.1h18.5l3.9,9.1h5.2l-16.1-36.1h-4.6l-16.1,36.1h5.2ZM110.1,255.5v-12.3h9.7c4.7,0,6.9,3.2,6.9,6.2s-2.3,6.1-6.5,6.1h-10.1ZM110.1,239v-11h8.8c4,0,5.9,2.7,5.9,5.4s-2.1,5.6-5.8,5.6h-8.9ZM124.6,240.6c3.3-1.5,4.9-4.7,4.9-8s-3.2-8.9-10.7-8.9h-13.2v36.1h13.5c8.4,0,12.4-5.4,12.4-10.5s-2.2-7.3-6.8-8.8"/>
    <path class="st1" d="M237.2,180.7v-4.3h-19.8l19.9-27.5v-4.2h-24.1v4.2h18.7l-19.9,27.5v4.3h25.3ZM173.9,144.7v31.7h15.6v4.3h-20.2v-36.1h4.6ZM128,177.1c7.1,0,12.2-6.1,12.2-14.5s-5.1-14.4-12.2-14.4-12.1,6.1-12.1,14.4,5.1,14.5,12.1,14.5M128,143.9c9.7,0,17,7.8,17,18.8s-7.3,18.9-17,18.9-17-7.8-17-18.9,7.3-18.8,17-18.8M64.6,160.3h19v-15.6h4.6v36.1h-4.6v-16.2h-19v16.2h-4.6v-36.1h4.6v15.6Z"/>
    <path class="st1" d="M250,101.6v-16.9h-14.7v4.2h10.2c0,5.6-5,9.1-10.2,9.1s-10.8-4-10.8-14.1,5.9-14.5,11.6-14.5,8,2.2,9.3,6.6l4.3-1.6c-2-6.3-7.6-9.6-13.6-9.6s-16.5,6.1-16.5,19.3,7.9,18.4,15.3,18.4,7.8-1.6,10.1-4.7l1.1,3.9h3.9ZM171.9,101.6h-4.6v-36.1h4.5l18.5,27.4v-27.4h4.6v36.1h-4.4l-18.6-27.5v27.5ZM138.9,65.6h-4.6v22.3c0,5.1-2.1,10.1-8.8,10.1s-8.9-5-8.9-10.1v-22.3h-4.6v22.9c0,8.2,5,14,13.5,14s13.4-5.8,13.4-14v-22.9ZM83.8,101.6h5.8l-15.3-23.4,14.9-12.6h-7l-17.6,15.4v-15.4h-4.6v36.1h4.6v-15.1l6.1-5.3,13.1,20.4Z"/>
    <rect class="st1" x="112.4" y="33.3" width="25.6" height="3.8"/>
  </g>
</svg>