<?xml version="1.0" encoding="UTF-8"?>
<svg id="Ebene_1" xmlns="http://www.w3.org/2000/svg" version="1.1" viewBox="0 0 113.3 135.1">
  <!-- Generator: Adobe Illustrator 29.1.0, SVG Export Plug-In . SVG Version: 2.1.0 Build 142)  -->
  <defs>
    <style>
      .st0 {
        fill: #1d1d1b;
      }
    </style>
  </defs>
  <g>
    <path class="st0" d="M105.7,113.6h-2.7v13.3c0,3-1.2,6-5.3,6s-5.3-3-5.3-6v-13.3h-2.7v13.6c0,4.9,3,8.4,8,8.4s8-3.5,8-8.4v-13.6ZM66.1,116.9l4.4,10.3h-8.8l4.4-10.3ZM58.3,135.1l2.3-5.4h11l2.3,5.4h3.1l-9.6-21.5h-2.7l-9.6,21.5h3.2ZM29.8,132.6v-7.4h5.8c2.8,0,4.1,1.9,4.1,3.7s-1.3,3.6-3.9,3.6h-6,0ZM29.8,122.7v-6.6h5.3c2.4,0,3.5,1.6,3.5,3.2s-1.2,3.3-3.5,3.3h-5.3ZM38.5,123.7c2-.9,2.9-2.8,2.9-4.7s-1.9-5.3-6.4-5.3h-7.9v21.5h8c5,0,7.4-3.2,7.4-6.2s-1.3-4.3-4.1-5.2"/>
    <path class="st0" d="M105.7,87.9v-2.6h-11.8l11.9-16.4v-2.5h-14.4v2.5h11.1l-11.9,16.4v2.6h15.1ZM67.9,66.4v18.9h9.3v2.6h-12.1v-21.5h2.8ZM40.5,85.8c4.2,0,7.3-3.6,7.3-8.6s-3-8.6-7.3-8.6-7.2,3.6-7.2,8.6,3,8.6,7.2,8.6M40.5,65.9c5.8,0,10.2,4.7,10.2,11.2s-4.4,11.3-10.2,11.3-10.1-4.7-10.1-11.3,4.4-11.2,10.1-11.2M2.7,75.7h11.3v-9.3h2.7v21.5h-2.7v-9.7H2.7v9.7H0v-21.5h2.7s0,9.3,0,9.3Z"/>
    <path class="st0" d="M113.3,40.7v-10.1h-8.8v2.5h6.1c0,3.3-3,5.4-6.1,5.4s-6.5-2.4-6.5-8.4,3.5-8.7,6.9-8.7,4.8,1.3,5.6,3.9l2.5-.9c-1.2-3.7-4.5-5.8-8.1-5.8s-9.8,3.7-9.8,11.5,4.7,11,9.1,11,4.7-1,6-2.8l.7,2.3h2.4ZM66.7,40.7h-2.7v-21.5h2.7l11,16.3v-16.3h2.7v21.5h-2.6l-11.1-16.4s0,16.4,0,16.4ZM47,19.2h-2.7v13.3c0,3-1.2,6-5.3,6s-5.3-3-5.3-6v-13.3h-2.7v13.6c0,4.9,3,8.4,8,8.4s8-3.5,8-8.4v-13.6ZM14.1,40.7h3.5l-9.1-14,8.9-7.5h-4.2L2.7,28.4v-9.2H0v21.5h2.7v-9l3.7-3.2,7.8,12.2h0Z"/>
  </g>
  <rect class="st0" x="31.2" width="15.3" height="2.3"/>
</svg>