<?xml version="1.0" encoding="UTF-8"?>
<svg id="Ebene_1" xmlns="http://www.w3.org/2000/svg" version="1.1" viewBox="0 0 147 164">
  <!-- Generator: Adobe Illustrator 29.1.0, SVG Export Plug-In . SVG Version: 2.1.0 Build 142)  -->
  <defs>
    <style>
      .st0 {
        fill: #fff;
      }
    </style>
  </defs>
  <g>
    <path class="st0" d="M122.6,125.7h-2.7v13.3c0,3-1.2,6-5.3,6s-5.3-3-5.3-6v-13.3h-2.7v13.6c0,4.9,3,8.4,8,8.4s8-3.5,8-8.4v-13.6ZM83,129l4.4,10.3h-8.8l4.4-10.3ZM75.2,147.2l2.3-5.4h11l2.3,5.4h3.1l-9.6-21.5h-2.7l-9.6,21.5h3.1ZM46.7,144.7v-7.4h5.8c2.8,0,4.1,1.9,4.1,3.7s-1.3,3.6-3.9,3.6h-6ZM46.7,134.8v-6.6h5.3c2.4,0,3.5,1.6,3.5,3.2s-1.2,3.3-3.5,3.3h-5.3ZM55.4,135.8c2-.9,2.9-2.8,2.9-4.7s-1.9-5.3-6.4-5.3h-7.9v21.5h8c5,0,7.4-3.2,7.4-6.2s-1.3-4.3-4.1-5.2"/>
    <path class="st0" d="M122.6,100v-2.6h-11.8l11.9-16.4v-2.5h-14.4v2.5h11.1l-11.9,16.4v2.6h15.1ZM84.8,78.5v18.9h9.3v2.6h-12.1v-21.5h2.7ZM57.4,97.9c4.2,0,7.3-3.6,7.3-8.6s-3-8.6-7.3-8.6-7.2,3.6-7.2,8.6,3,8.6,7.2,8.6M57.4,78c5.8,0,10.2,4.7,10.2,11.2s-4.4,11.3-10.2,11.3-10.1-4.7-10.1-11.3,4.4-11.2,10.1-11.2M19.6,87.8h11.3v-9.3h2.7v21.5h-2.7v-9.7h-11.3v9.7h-2.7v-21.5h2.7v9.3Z"/>
    <path class="st0" d="M130.2,52.8v-10.1h-8.8v2.5h6.1c0,3.3-3,5.4-6.1,5.4s-6.5-2.4-6.5-8.4,3.5-8.7,6.9-8.7,4.8,1.3,5.6,3.9l2.5-.9c-1.2-3.7-4.5-5.8-8.1-5.8s-9.8,3.7-9.8,11.5,4.7,11,9.1,11,4.7-1,6-2.8l.7,2.3h2.3ZM83.6,52.8h-2.7v-21.5h2.7l11,16.3v-16.3h2.7v21.5h-2.6l-11.1-16.4v16.4ZM63.9,31.3h-2.7v13.3c0,3-1.2,6-5.3,6s-5.3-3-5.3-6v-13.3h-2.7v13.6c0,4.9,3,8.4,8,8.4s8-3.5,8-8.4v-13.6ZM31,52.8h3.5l-9.1-14,8.9-7.5h-4.2l-10.5,9.2v-9.2h-2.7v21.5h2.7v-9l3.7-3.2,7.8,12.2Z"/>
  </g>
  <rect class="st0" x="48.1" y="12.1" width="15.3" height="2.3"/>
</svg>