<?xml version="1.0" encoding="UTF-8"?>
<svg id="Ebene_1" xmlns="http://www.w3.org/2000/svg" version="1.1" viewBox="0 0 850.4 114.8">
  <!-- Generator: Adobe Illustrator 29.1.0, SVG Export Plug-In . SVG Version: 2.1.0 Build 142)  -->
  <defs>
    <style>
      .st0 {
        fill: #12120d;
      }

      .st1 {
        fill: #ffed00;
      }
    </style>
  </defs>
  <rect class="st1" x="0" width="850.4" height="114.8"/>
  <path class="st0" d="M558.2,73.3c0,.5-.2.9-.6,1.3l-3.7,3.7c-.4.4-.7.6-1.3.6h-14.1c-.6,0-1-.2-1.3-.6l-3.7-3.7c-.4-.4-.6-.8-.6-1.3V26.4h-11.4v48.8c0,1.8.7,3.4,2,4.8l7.8,7.8c1.3,1.3,2.9,2,4.7,2h19.1c1.8,0,3.4-.7,4.8-2l7.8-7.8c1.3-1.4,2-2.9,2-4.8V26.4h-11.4v46.9ZM595.5,53.9v-16.7h21.4c.6,0,.9.2,1.3.6l2.1,2.1c.4.4.6.7.6,1.3v8.7c0,.6-.2,1-.6,1.3l-2.1,2.1c-.4.4-.8.6-1.3.6h-21.4ZM619.5,64.7c1.8,0,3.3-.7,4.6-1.9l6.3-6.3c1.3-1.3,2-2.8,2-4.7v-12.5c0-1.9-.7-3.4-2-4.8l-6.3-6.3c-1.2-1.2-2.8-1.9-4.6-1.9h-35.3v63.3h11.4v-25h6.9c.7,0,1.2.3,1.6.8l18.7,24.1h13.9l-19.6-25h2.3ZM467.7,89.7h11.4v-26.3h29.1v-10.8h-29.1v-15.4h31.1v-10.8h-42.4v63.4ZM710.5,89.7h42.4v-10.9h-31v-15.5h28.8v-10.8h-28.8v-15.4h31v-10.8h-42.4v63.4ZM658.9,53.9v-16.7h21.4c.6,0,.9.2,1.3.6l2.1,2.1c.4.4.6.7.6,1.3v8.7c0,.6-.2,1-.6,1.3l-2.1,2.1c-.4.4-.8.6-1.3.6h-21.4ZM682.9,64.7c1.8,0,3.3-.7,4.6-1.9l6.3-6.3c1.3-1.3,2-2.8,2-4.7v-12.5c0-1.9-.7-3.4-2-4.8l-6.3-6.3c-1.2-1.2-2.8-1.9-4.6-1.9h-35.3v63.3h11.4v-25h6.9c.7,0,1.2.3,1.6.8l18.7,24.1h13.9l-19.6-25h2.3ZM777.7,53.9v-16.7h21.4c.6,0,.9.2,1.3.6l2.1,2.1c.4.4.6.7.6,1.3v8.7c0,.6-.2,1-.6,1.3l-2.1,2.1c-.4.4-.8.6-1.3.6h-21.4ZM799.3,64.7h2.3c1.8,0,3.3-.7,4.6-1.9l6.3-6.3c1.3-1.3,2-2.8,2-4.7v-12.5c0-1.9-.7-3.4-2-4.8l-6.3-6.3c-1.2-1.2-2.8-1.9-4.6-1.9h-35.3v63.3h11.4v-25h6.9c.7,0,1.2.3,1.6.8l18.7,24.1h13.9l-19.6-25ZM415.6,73.3c0,.5-.2.9-.6,1.3l-3.7,3.7c-.4.4-.8.6-1.3.6h-19.9c-.6,0-1-.2-1.3-.6l-3.7-3.7c-.4-.4-.6-.8-.6-1.3v-30.5c0-.5.2-1,.6-1.3l3.7-3.7c.4-.4.8-.6,1.3-.6h19.9c.6,0,.9.2,1.3.6l3.7,3.7c.4.4.6.8.6,1.3v30.5ZM417.2,28.4c-1.3-1.3-2.9-2-4.7-2h-24.8c-1.8,0-3.4.7-4.8,2l-7.8,7.8c-1.3,1.3-2,2.9-2,4.8v34.3c0,1.8.7,3.4,2,4.8l7.8,7.8c1.4,1.3,3,2,4.8,2h24.8c1.8,0,3.4-.7,4.7-2l7.8-7.8c1.3-1.4,2-2.9,2-4.8v-34.3c0-1.8-.7-3.4-2-4.8l-7.8-7.8ZM36.7,89.7h42.4v-10.9h-31v-15.5h29.1v-10.8h-29.1v-15.4h31v-10.8h-42.4v63.4ZM144.9,89.7h42.5v-10.9h-31.1v-15.5h29.2v-10.8h-29.2v-15.4h31.1v-10.8h-42.5v63.4ZM249.6,26.4h-14l-22.7,26.3v-26.3h-11.4v63.3h11.4v-21l7.4-8.5,22.9,29.5h13.9l-29.6-37.8,22.1-25.5ZM104.4,26.4h-11.4v63.3h42.5v-10.9h-31V26.4ZM255.4,37.2h18.3v52.5h11.4v-52.5h18.3v-10.8h-48v10.8ZM324.8,53.9v-16.7h21.4c.6,0,1,.2,1.3.6l2.1,2.1c.4.4.6.7.6,1.3v8.7c0,.6-.2,1-.6,1.3l-2.1,2.1c-.4.4-.8.6-1.3.6h-21.4ZM348.7,64.7c1.8,0,3.3-.7,4.6-1.9l6.3-6.3c1.3-1.3,2-2.8,2-4.7v-12.5c0-1.9-.7-3.4-2-4.8l-6.3-6.3c-1.2-1.2-2.8-1.9-4.6-1.9h-35.3v63.3h11.4v-25h6.9c.7,0,1.2.3,1.6.8l18.7,24.1h14l-19.5-25h2.3Z"/>
</svg>