<svg width="115" height="60" viewBox="0 0 115 60" fill="none" xmlns="http://www.w3.org/2000/svg">
<g clip-path="url(#clip0_228_623)">
<path d="M5.1677 48.3008L1.32937 52.2758V48.357H0V57.507H1.32001V52.5289L5.42047 57.5164H7.16176L2.78045 52.407L6.86218 48.3008H5.1677Z" fill="#1D1D1B"/>
<mask id="mask0_228_623" style="mask-type:luminance" maskUnits="userSpaceOnUse" x="0" y="0" width="115" height="60">
<path d="M115 0H0V60H115V0Z" fill="white"/>
</mask>
<g mask="url(#mask0_228_623)">
<path d="M8.01371 52.2914C8.8001 51.0633 10.0171 50.9414 10.5414 50.9414C11.1967 50.9414 11.6929 51.1383 11.8988 51.232C13.5559 51.9914 13.715 53.7352 13.715 54.3352C13.715 54.7102 13.6589 55.657 13.0316 56.5195C12.704 56.9508 11.9831 57.7008 10.6163 57.7008C10.298 57.7008 9.26819 57.6352 8.50989 56.9695C8.40691 56.8758 8.18222 56.6789 7.99499 56.3508C7.80775 56.0508 7.4052 55.2258 7.43328 54.2039C7.46137 53.2477 7.82648 52.582 8.00435 52.2914M9.47415 56.3883C9.93287 56.7727 10.4197 56.8195 10.635 56.8195C11.5899 56.8195 12.058 55.9945 12.161 55.732C12.2546 55.5352 12.3482 55.2727 12.395 54.8039C12.395 54.7383 12.4325 54.4102 12.4325 54.1477C12.4325 53.9414 12.4325 53.3414 12.1048 52.7883C11.9457 52.5164 11.4869 51.832 10.5788 51.832C10.4103 51.832 10.0639 51.8602 9.69883 52.0664C9.25883 52.3383 8.78138 52.9289 8.71584 54.0914C8.68776 54.4195 8.61286 55.6383 9.46479 56.3789" fill="#1D1D1B"/>
<path d="M16.7576 51.1477L16.8137 51.9352C17.675 51.1758 17.9371 51.0727 19.0793 50.9883V52.2727C18.9857 52.2633 18.658 52.1977 18.3771 52.1977C17.4316 52.1977 17.0197 52.7883 16.8699 53.1539C16.7763 53.407 16.7763 53.6695 16.7669 53.9227V57.5133H15.5405V51.1477H16.7669H16.7576Z" fill="#1D1D1B"/>
<path d="M21.6164 51.1313V51.825C21.6164 51.825 21.8879 51.5531 22.1032 51.4219C22.3372 51.2625 22.8708 50.9531 23.6479 50.9531C24.0036 50.9531 24.7338 51.0188 25.436 51.6469C25.9041 52.0688 26.447 52.7813 26.447 54.2156C26.447 54.6375 26.4096 54.9469 26.3815 55.1063C26.2692 55.9969 25.9228 56.7469 25.1645 57.2438C24.9211 57.4125 24.4062 57.7125 23.6479 57.7125C23.0955 57.7125 22.4496 57.525 21.9908 57.2156C21.8223 57.0938 21.6913 56.9531 21.5602 56.8125V60.0187H20.3806V51.1406H21.6257L21.6164 51.1313ZM21.6257 54.9C21.6819 55.5563 21.7849 56.0531 22.3091 56.4844C22.7398 56.85 23.2266 56.8875 23.4232 56.8875C24.1815 56.8875 24.5841 56.4188 24.7432 56.1938C25.1645 55.6406 25.1926 54.975 25.1926 54.2906C25.1926 54.1875 25.1926 53.6906 25.0989 53.3063C25.0053 52.9688 24.6028 51.8813 23.4232 51.8813C23.0674 51.8813 22.8053 51.9844 22.693 52.0406C22.1874 52.2469 21.6445 52.7906 21.5976 54.0938C21.5976 54.2813 21.5976 54.5156 21.6351 54.8906" fill="#1D1D1B"/>
<path d="M28.3755 52.2914C29.1619 51.0633 30.3789 50.9414 30.9032 50.9414C31.5585 50.9414 32.0547 51.1383 32.2607 51.232C33.9177 51.9914 34.0768 53.7352 34.0768 54.3352C34.0768 54.7102 34.0207 55.657 33.3934 56.5195C33.0658 56.9508 32.3449 57.7008 30.9781 57.7008C30.6598 57.7008 29.63 57.6352 28.8717 56.9695C28.7687 56.8758 28.544 56.6789 28.3568 56.3508C28.1696 56.0508 27.767 55.2258 27.7951 54.2039C27.8232 53.2477 28.1883 52.582 28.3662 52.2914M29.836 56.3883C30.2947 56.7727 30.7815 56.8195 30.9968 56.8195C31.9517 56.8195 32.4198 55.9945 32.5228 55.732C32.6164 55.5352 32.71 55.2727 32.7568 54.8039C32.7568 54.7383 32.7943 54.4102 32.7943 54.1477C32.7943 53.9414 32.7943 53.3414 32.4666 52.7883C32.3075 52.5164 31.8487 51.832 30.9407 51.832C30.7721 51.832 30.4258 51.8602 30.0606 52.0664C29.6206 52.3383 29.1432 52.9289 29.0777 54.0914C29.0496 54.4195 28.9747 55.6383 29.8266 56.3789" fill="#1D1D1B"/>
<path d="M37.1007 51.1477L37.1569 51.9352C38.0181 51.1758 38.2803 51.0727 39.4224 50.9883V52.2727C39.3288 52.2633 39.0011 52.1977 38.7203 52.1977C37.7747 52.1977 37.3628 52.7883 37.213 53.1539C37.1194 53.407 37.1194 53.6695 37.1101 53.9227V57.5133H35.8837V51.1477H37.1101H37.1007Z" fill="#1D1D1B"/>
<path d="M40.5552 52.9102C40.5646 52.7414 40.5833 52.282 40.8829 51.8602C41.351 51.2039 42.1467 51.0914 42.3714 51.0445C42.5025 51.0352 42.7927 50.9883 43.1391 50.9883C43.4012 50.9883 43.5978 50.9883 43.8599 51.0445C44.1314 51.082 45.0582 51.2133 45.414 52.1039C45.5731 52.507 45.5825 52.9383 45.5825 53.3883V55.9758C45.5919 56.6602 45.6199 56.8477 45.8165 57.5039H44.5527L44.431 56.8195C43.7944 57.3539 43.3357 57.7008 42.4744 57.7008C42.334 57.7008 41.9408 57.6914 41.5476 57.5414C40.4335 57.1477 40.265 56.1164 40.265 55.6945C40.265 54.907 40.6863 54.2508 41.3603 53.8758C42.025 53.5008 42.8395 53.4727 44.4216 53.5195C44.4497 52.8633 44.4497 52.3852 43.8974 52.0289C43.7663 51.9539 43.4293 51.7758 43.008 51.7758C42.3714 51.7758 42.0438 52.132 41.922 52.3477C41.8565 52.4695 41.8191 52.6102 41.7535 52.9008H40.5459L40.5552 52.9102ZM43.5323 54.2789C43.3638 54.2789 42.9144 54.2789 42.4744 54.4383C41.922 54.6352 41.4446 55.0289 41.4446 55.6664C41.4446 56.3977 42.0625 56.7539 42.7365 56.7539C42.9331 56.7539 43.0361 56.7258 43.2233 56.6883C43.6914 56.5477 44.1689 56.182 44.3467 55.6945C44.3842 55.5727 44.4216 55.4414 44.4216 55.1977C44.431 54.907 44.431 54.6258 44.4216 54.3258C44.1221 54.2977 43.8319 54.2883 43.5323 54.2883" fill="#1D1D1B"/>
<path d="M48.0541 51.1414V49.6883L49.243 49.0977V51.1227H50.6379V52.0227H49.243V55.5945C49.243 56.382 49.3553 56.6539 49.8047 56.6445C50.1324 56.6445 50.563 56.4852 50.5911 56.4852V57.4039C50.46 57.432 49.8983 57.5914 49.3834 57.5914C48.6251 57.5914 48.2507 57.2539 48.1196 56.9539C48.0447 56.7758 48.0447 56.5508 48.0541 56.3258V52.032H46.8651V51.1414H48.0541Z" fill="#1D1D1B"/>
<path d="M53.6897 57.5164H52.4259V51.1414H53.6897V57.5164ZM53.6991 49.6133H52.4446V48.3477H53.6991V49.6133Z" fill="#1D1D1B"/>
<path d="M56.0583 52.2914C56.8447 51.0633 58.0617 50.9414 58.5859 50.9414C59.2413 50.9414 59.7374 51.1383 59.9434 51.232C61.6004 51.9914 61.7596 53.7352 61.7596 54.3352C61.7596 54.7102 61.7034 55.657 61.0762 56.5195C60.7485 56.9508 60.0277 57.7008 58.6608 57.7008C58.3519 57.7008 57.3127 57.6352 56.5544 56.9695C56.4515 56.8758 56.2268 56.6789 56.0395 56.3508C55.8523 56.0508 55.4498 55.2258 55.4778 54.2039C55.5059 53.2477 55.871 52.582 56.0489 52.2914M57.5187 56.3883C57.9774 56.7727 58.4642 56.8195 58.6796 56.8195C59.6345 56.8195 60.1026 55.9945 60.2055 55.732C60.2991 55.5352 60.3928 55.2727 60.4396 54.8039C60.4396 54.7383 60.477 54.4102 60.477 54.1477C60.477 53.9414 60.477 53.3414 60.1494 52.7883C59.9902 52.5164 59.5315 51.832 58.6234 51.832C58.4549 51.832 58.1085 51.8602 57.7434 52.0664C57.294 52.3383 56.8259 52.9289 56.7604 54.0914C56.7323 54.4195 56.6574 55.6383 57.5093 56.3789" fill="#1D1D1B"/>
<path d="M64.6898 51.8039C65.3452 51.3352 65.8507 50.9883 66.7026 50.9883C67.5546 50.9883 68.3784 51.4383 68.678 52.2164C68.809 52.5727 68.8184 52.9195 68.8465 53.332V57.5227H67.6669V53.7164C67.6107 53.1258 67.5546 52.5352 67.0771 52.1602C66.9648 52.0664 66.7026 51.8977 66.3188 51.8977C66.1596 51.8977 65.8133 51.9352 65.4669 52.1977C64.8396 52.657 64.7835 53.332 64.7647 54.1102V57.5133H63.5477V53.9883L63.4822 51.1383H64.6898V51.8039Z" fill="#1D1D1B"/>
<path d="M81.5411 51.1961C81.5505 50.9055 81.5505 50.6242 81.3164 50.2398C81.2228 50.0711 81.1105 49.9492 81.0543 49.9117C80.5862 49.518 79.8373 49.5273 79.7062 49.5273C79.3692 49.5273 78.3862 49.5836 77.759 50.4273C77.4594 50.8586 77.1692 51.6086 77.1692 52.818C77.1692 53.0523 77.1692 53.3055 77.1973 53.5492C77.3283 54.8617 77.89 55.4898 78.3862 55.7898C78.9479 56.118 79.6032 56.118 79.8373 56.118C80.399 56.118 80.8671 56.0523 81.6066 55.8742V53.9898H79.5471V52.4242H83.4977V57.0273C82.702 57.2805 82.1403 57.4586 80.9794 57.618C80.839 57.6461 80.296 57.7211 79.8186 57.7211C79.3879 57.7211 77.7402 57.7117 76.5794 56.6898C76.027 56.2211 75.7649 55.6773 75.6526 55.443C75.1283 54.3555 75.1002 53.2398 75.1002 52.8273C75.1002 51.243 75.6245 50.2867 75.9709 49.7805C76.1581 49.5273 76.3734 49.2742 76.5981 49.0773C77.4687 48.3367 78.7045 48.0742 79.8373 48.0742C80.1556 48.0742 81.9718 48.0836 82.9454 49.1992C83.1981 49.4898 83.3479 49.8555 83.3948 49.9586C83.5539 50.3617 83.5913 50.6242 83.6194 51.2055H81.5505L81.5411 51.1961Z" fill="#1D1D1B"/>
<path d="M87.5795 57.5227H85.6978V50.8852H87.5795V57.5227ZM87.5888 49.7602H85.7071V48.1289H87.5888V49.7602Z" fill="#1D1D1B"/>
<path d="M93.2526 52.8273C93.2245 52.518 93.159 52.143 92.7471 51.993C92.5411 51.918 92.2415 51.918 92.1947 51.918C92.1666 51.918 91.8951 51.918 91.736 51.9836C91.633 52.0117 91.2398 52.1898 91.2398 52.5555C91.2398 52.8273 91.3615 52.9117 91.502 52.9961C91.6986 53.118 91.9232 53.1836 92.3352 53.2961L93.4305 53.6148C93.5709 53.6523 94.1139 53.7555 94.5633 54.1398C94.8067 54.3461 95.153 54.7398 95.153 55.4242C95.153 55.8648 95.0594 56.343 94.685 56.7836C94.1701 57.3555 93.3462 57.7117 92.0262 57.7117C91.8203 57.7117 91.2586 57.7117 90.65 57.4773C90.2288 57.3086 90.079 57.1867 89.9292 57.0555C89.7045 56.8586 89.667 56.8211 89.5641 56.6617C89.3581 56.3523 89.2551 56.043 89.2551 55.4055H91.0994C91.0994 55.4617 91.0713 55.6586 91.1275 55.8273C91.296 56.3617 91.8858 56.4555 92.2509 56.4555C92.3164 56.4555 92.7377 56.4555 93.0186 56.2305C93.2245 56.0898 93.3275 55.8367 93.3275 55.6398C93.3275 55.5461 93.2994 55.4336 93.2245 55.3211C93.0373 55.0586 92.8594 55.0305 92.5973 54.9648C92.4756 54.9273 92.3726 54.8992 92.2603 54.8617C91.3709 54.6273 90.8934 54.5336 90.4534 54.3273C89.9573 54.0742 89.7045 53.8023 89.5922 53.5586C89.5266 53.4555 89.433 53.1555 89.433 52.8086C89.433 52.6492 89.4424 52.2742 89.6951 51.8242C89.7981 51.6648 89.8917 51.5336 90.0228 51.4023C90.4254 51.018 91.1462 50.6992 92.2041 50.6992C92.3445 50.6992 93.1028 50.7086 93.7113 50.9523C93.8518 51.0086 94.4135 51.2242 94.7224 51.7398C94.9845 52.1992 94.9845 52.6961 94.9939 52.8367H93.2432L93.2526 52.8273Z" fill="#1D1D1B"/>
<path d="M98.3267 52.3867L99.1599 55.368L99.291 55.9305C99.3565 55.668 99.4221 55.3961 99.497 55.1148C99.628 54.6742 99.7872 54.2148 99.9276 53.7648C100.218 52.8086 100.517 51.8523 100.817 50.8867H102.83L104.384 55.9305C104.44 55.6586 104.487 55.3961 104.552 55.1148C104.721 54.4305 104.936 53.7367 105.133 53.043L105.76 50.8867H107.698L105.348 57.5242H103.26L102.062 53.7461L101.837 52.9305L100.377 57.5242H98.3174L95.9769 50.8867H97.9148L98.3455 52.3773L98.3267 52.3867Z" fill="#1D1D1B"/>
<path d="M110.787 57.5227H108.906V50.8852H110.787V57.5227ZM110.806 49.7602H108.924V48.1289H110.806V49.7602Z" fill="#1D1D1B"/>
<path d="M115 48.2891H113.128V57.5328H115V48.2891Z" fill="#1D1D1B"/>
<path d="M10.8036 41.4187C15.1942 39.1312 25.1832 34.7906 41.1731 32.4187C77.5062 27.0187 112.332 34.8281 113.427 35.2781L111.218 36.1218C90.6969 33.103 75.8398 32.5031 60.215 34.3593C34.2735 37.4343 26.1475 43.0874 24.5654 44.3999C24.5654 44.3999 22.4309 43.6499 21.0453 43.2468C17.1415 42.1218 10.7942 41.4093 10.7942 41.4093" fill="#52AE32"/>
<path d="M21.8692 25.8459C26.082 23.7365 35.7995 22.4334 38.0182 19.1334C47.7919 4.58342 59.8873 -0.488456 62.7052 0.0365437C68.3785 1.08654 75.3904 11.7834 77.5811 16.2178C77.7871 16.1334 77.9275 16.0865 77.9275 16.0865C77.9275 16.0865 87.6637 13.199 89.6859 14.324C91.708 15.449 102.399 19.0022 103.635 20.0803C103.635 20.0803 103.906 20.6147 103.392 20.2584C98.4017 18.6365 90.0322 16.3303 88.5437 16.2553C86.4467 16.1428 77.0287 18.8053 77.0287 18.8053C74.9224 13.5834 67.3112 1.24592 63.3138 1.56467C60.8797 1.76154 49.9826 6.12092 40.5459 21.6928C39.0387 24.1865 25.7918 25.8365 25.7918 25.8365C24.2658 26.0053 21.6726 25.9303 21.8598 25.8365" fill="#1D1D1B"/>
<path d="M81.5691 22.7902C73.1341 18.7777 65.1673 10.3027 63.7068 8.13706C62.9579 7.03081 62.8362 6.01831 64.1562 7.64018C65.4762 9.26206 74.0048 17.0621 81.8406 20.2777C92.2603 24.5433 103.953 23.5121 110.357 24.1027C114.644 26.0058 92.2134 27.8621 81.5597 22.7996" fill="#0095DB"/>
</g>
</g>
<defs>
<clipPath id="clip0_228_623">
<rect width="115" height="60" fill="white"/>
</clipPath>
</defs>
</svg>
