<?xml version="1.0" encoding="UTF-8"?>
<svg id="Ebene_1" xmlns="http://www.w3.org/2000/svg" version="1.1" viewBox="0 0 24 24">
  <!-- Generator: Adobe Illustrator 29.4.0, SVG Export Plug-In . SVG Version: 2.1.0 Build 152)  -->
  <path d="M23.9,7.1c0-1-.2-2-.6-2.9-.3-.8-.8-1.5-1.4-2.1-.6-.6-1.3-1.1-2.1-1.4-.9-.3-1.9-.5-2.9-.6-1.3,0-1.7,0-4.9,0s-3.7,0-4.9,0c-1,0-2,.2-2.9.6-.8.3-1.5.8-2.1,1.4-.6.6-1.1,1.3-1.4,2.1-.4.9-.5,1.9-.6,2.9,0,1.3,0,1.7,0,4.9s0,3.7,0,4.9c0,1,.2,2,.6,2.9.3.8.8,1.5,1.4,2.1.6.6,1.3,1.1,2.1,1.4.9.3,1.9.5,2.9.6,1.3,0,1.7,0,4.9,0s3.7,0,4.9,0c1,0,2-.2,2.9-.6.8-.3,1.5-.8,2.1-1.4.6-.6,1.1-1.3,1.4-2.1.3-.9.5-1.9.6-2.9,0-1.3,0-1.7,0-4.9s0-3.7,0-4.9ZM21.8,16.8c0,.8-.1,1.5-.4,2.2-.2.5-.5,1-.9,1.4-.4.4-.9.7-1.4.9-.7.3-1.5.4-2.2.4-1.2,0-1.6,0-4.8,0s-3.6,0-4.8,0c-.8,0-1.6-.1-2.3-.4-.5-.2-1-.5-1.4-.9-.4-.4-.7-.9-.9-1.4-.3-.7-.4-1.5-.4-2.3,0-1.2,0-1.6,0-4.8s0-3.6,0-4.8c0-.8.1-1.5.4-2.3.2-.5.5-1,.9-1.4.4-.4.9-.7,1.4-.9.7-.3,1.5-.4,2.3-.4,1.2,0,1.6,0,4.8,0s3.6,0,4.8,0c.8,0,1.5.1,2.2.4.5.2,1,.5,1.4.9.4.4.7.9.9,1.4.3.7.4,1.5.5,2.3,0,1.2,0,1.6,0,4.8s0,3.6,0,4.8Z"/>
  <path d="M12,5.8c-1.2,0-2.4.4-3.4,1s-1.8,1.6-2.3,2.8c-.5,1.1-.6,2.4-.4,3.6.2,1.2.8,2.3,1.7,3.2.9.9,2,1.5,3.2,1.7,1.2.2,2.4.1,3.6-.4,1.1-.5,2.1-1.3,2.8-2.3.7-1,1-2.2,1-3.4s-.6-3.2-1.8-4.4c-1.2-1.2-2.7-1.8-4.4-1.8ZM12,16c-.8,0-1.6-.2-2.2-.7-.7-.4-1.2-1.1-1.5-1.8-.3-.7-.4-1.5-.2-2.3.2-.8.5-1.5,1.1-2,.6-.6,1.3-.9,2-1.1.8-.2,1.6,0,2.3.2.7.3,1.4.8,1.8,1.5.4.7.7,1.4.7,2.2s-.1,1-.3,1.5c-.2.5-.5.9-.9,1.3-.4.4-.8.7-1.3.9-.5.2-1,.3-1.5.3Z"/>
  <path d="M18.4,4.2c-.3,0-.6,0-.8.2-.2.2-.4.4-.5.6-.1.3-.1.6,0,.8,0,.3.2.5.4.7.2.2.5.3.7.4.3,0,.6,0,.8,0,.3-.1.5-.3.6-.5.2-.2.2-.5.2-.8s-.2-.7-.4-1c-.3-.3-.6-.4-1-.4Z"/>
</svg>