<?xml version="1.0" encoding="UTF-8"?>
<svg id="Ebene_1" xmlns="http://www.w3.org/2000/svg" version="1.1" viewBox="0 0 24 24">
  <!-- Generator: Adobe Illustrator 29.4.0, SVG Export Plug-In . SVG Version: 2.1.0 Build 152)  -->
  <path d="M20.4,20.5h-3.6v-5.6c0-1.3,0-3-1.9-3s-2.1,1.4-2.1,2.9v5.7h-3.6v-11.4h3.4v1.6h0c.3-.6.8-1.1,1.4-1.4.6-.3,1.3-.5,1.9-.5,3.6,0,4.3,2.4,4.3,5.5v6.3h0ZM5.3,7.4c-.4,0-.8-.1-1.1-.3s-.6-.5-.8-.9c-.2-.4-.2-.8-.1-1.2,0-.4.3-.8.6-1.1s.7-.5,1.1-.6c.4,0,.8,0,1.2.1.4.2.7.4.9.8.2.3.3.7.3,1.1,0,.3,0,.5-.2.8-.1.3-.3.5-.4.7-.2.2-.4.3-.7.4-.3.1-.5.2-.8.2ZM7.1,20.5h-3.6v-11.5h3.6v11.5ZM22.2,0H1.8c-.2,0-.5,0-.7.1-.2,0-.4.2-.6.4-.2.2-.3.4-.4.6C0,1.3,0,1.5,0,1.7v20.5c0,.2,0,.5.1.7,0,.2.2.4.4.6.2.2.4.3.6.4.2,0,.4.1.7.1h20.5c.5,0,.9-.2,1.2-.5.3-.3.5-.8.5-1.2V1.7c0-.5-.2-.9-.5-1.2C23.1.2,22.7,0,22.2,0h0Z"/>
</svg>